<mxfile host="app.diagrams.net" agent="Mozilla/5.0 (Windows NT 10.0; Win64; x64) AppleWebKit/537.36 (KHTML, like Gecko) Chrome/140.0.0.0 Safari/537.36" version="28.2.0">
  <diagram name="Página-1" id="Mc0gBe1fVGeN6V7oAQam">
    <mxGraphModel grid="1" page="1" gridSize="10" guides="1" tooltips="1" connect="1" arrows="1" fold="1" pageScale="1" pageWidth="827" pageHeight="1169" math="0" shadow="0">
      <root>
        <mxCell id="0" />
        <mxCell id="1" parent="0" />
        <mxCell id="4auIruKiONwnVCz1NFnw-1" style="edgeStyle=orthogonalEdgeStyle;rounded=0;orthogonalLoop=1;jettySize=auto;html=1;" edge="1" parent="1" source="4auIruKiONwnVCz1NFnw-6" target="4auIruKiONwnVCz1NFnw-8">
          <mxGeometry relative="1" as="geometry">
            <Array as="points">
              <mxPoint x="850" y="280" />
              <mxPoint x="610" y="280" />
            </Array>
          </mxGeometry>
        </mxCell>
        <mxCell id="4auIruKiONwnVCz1NFnw-2" style="edgeStyle=orthogonalEdgeStyle;rounded=0;orthogonalLoop=1;jettySize=auto;html=1;" edge="1" parent="1" source="4auIruKiONwnVCz1NFnw-6" target="4auIruKiONwnVCz1NFnw-11">
          <mxGeometry relative="1" as="geometry" />
        </mxCell>
        <mxCell id="4auIruKiONwnVCz1NFnw-3" style="edgeStyle=orthogonalEdgeStyle;rounded=0;orthogonalLoop=1;jettySize=auto;html=1;entryX=0.5;entryY=0;entryDx=0;entryDy=0;" edge="1" parent="1" source="4auIruKiONwnVCz1NFnw-6" target="4auIruKiONwnVCz1NFnw-7">
          <mxGeometry relative="1" as="geometry">
            <Array as="points">
              <mxPoint x="850" y="280" />
              <mxPoint x="370" y="280" />
            </Array>
          </mxGeometry>
        </mxCell>
        <mxCell id="4auIruKiONwnVCz1NFnw-12" style="edgeStyle=orthogonalEdgeStyle;rounded=0;orthogonalLoop=1;jettySize=auto;html=1;entryX=0.5;entryY=0;entryDx=0;entryDy=0;" edge="1" parent="1" source="4auIruKiONwnVCz1NFnw-6" target="4auIruKiONwnVCz1NFnw-9">
          <mxGeometry relative="1" as="geometry">
            <Array as="points">
              <mxPoint x="850" y="280" />
              <mxPoint x="1100" y="280" />
            </Array>
          </mxGeometry>
        </mxCell>
        <mxCell id="4auIruKiONwnVCz1NFnw-13" style="edgeStyle=orthogonalEdgeStyle;rounded=0;orthogonalLoop=1;jettySize=auto;html=1;entryX=0.5;entryY=0;entryDx=0;entryDy=0;" edge="1" parent="1" target="4auIruKiONwnVCz1NFnw-10">
          <mxGeometry relative="1" as="geometry">
            <mxPoint x="910" y="280" as="sourcePoint" />
            <mxPoint x="1350" y="400" as="targetPoint" />
          </mxGeometry>
        </mxCell>
        <mxCell id="4auIruKiONwnVCz1NFnw-6" value="Proyecto de Chatbot" style="rounded=0;whiteSpace=wrap;html=1;fillColor=#d5e8d4;strokeColor=#82b366;gradientColor=#97d077;" vertex="1" parent="1">
          <mxGeometry x="790" y="160" width="120" height="60" as="geometry" />
        </mxCell>
        <mxCell id="4auIruKiONwnVCz1NFnw-18" style="edgeStyle=orthogonalEdgeStyle;rounded=0;orthogonalLoop=1;jettySize=auto;html=1;entryX=0;entryY=0.5;entryDx=0;entryDy=0;" edge="1" parent="1" source="4auIruKiONwnVCz1NFnw-7" target="4auIruKiONwnVCz1NFnw-14">
          <mxGeometry relative="1" as="geometry">
            <Array as="points">
              <mxPoint x="290" y="340" />
              <mxPoint x="290" y="435" />
            </Array>
          </mxGeometry>
        </mxCell>
        <mxCell id="4auIruKiONwnVCz1NFnw-19" style="edgeStyle=orthogonalEdgeStyle;rounded=0;orthogonalLoop=1;jettySize=auto;html=1;entryX=0;entryY=0.5;entryDx=0;entryDy=0;" edge="1" parent="1" source="4auIruKiONwnVCz1NFnw-7" target="4auIruKiONwnVCz1NFnw-16">
          <mxGeometry relative="1" as="geometry">
            <Array as="points">
              <mxPoint x="290" y="340" />
              <mxPoint x="290" y="525" />
            </Array>
          </mxGeometry>
        </mxCell>
        <mxCell id="4auIruKiONwnVCz1NFnw-20" style="edgeStyle=orthogonalEdgeStyle;rounded=0;orthogonalLoop=1;jettySize=auto;html=1;entryX=0;entryY=0.5;entryDx=0;entryDy=0;" edge="1" parent="1" source="4auIruKiONwnVCz1NFnw-7" target="4auIruKiONwnVCz1NFnw-15">
          <mxGeometry relative="1" as="geometry">
            <Array as="points">
              <mxPoint x="290" y="340" />
              <mxPoint x="290" y="615" />
            </Array>
          </mxGeometry>
        </mxCell>
        <mxCell id="4auIruKiONwnVCz1NFnw-21" style="edgeStyle=orthogonalEdgeStyle;rounded=0;orthogonalLoop=1;jettySize=auto;html=1;entryX=0;entryY=0.5;entryDx=0;entryDy=0;" edge="1" parent="1" source="4auIruKiONwnVCz1NFnw-7" target="4auIruKiONwnVCz1NFnw-17">
          <mxGeometry relative="1" as="geometry">
            <Array as="points">
              <mxPoint x="290" y="340" />
              <mxPoint x="290" y="705" />
            </Array>
          </mxGeometry>
        </mxCell>
        <mxCell id="4auIruKiONwnVCz1NFnw-7" value="1.- Fase de Inicio" style="rounded=0;whiteSpace=wrap;html=1;fillColor=#f8cecc;strokeColor=#b85450;gradientColor=#ea6b66;" vertex="1" parent="1">
          <mxGeometry x="310" y="310" width="120" height="60" as="geometry" />
        </mxCell>
        <mxCell id="4auIruKiONwnVCz1NFnw-8" value="2.-Fase de Planificación" style="rounded=0;whiteSpace=wrap;html=1;fillColor=#f8cecc;strokeColor=#b85450;gradientColor=#ea6b66;" vertex="1" parent="1">
          <mxGeometry x="550" y="310" width="120" height="60" as="geometry" />
        </mxCell>
        <mxCell id="4auIruKiONwnVCz1NFnw-9" value="4.- Fase de Control" style="rounded=0;whiteSpace=wrap;html=1;fillColor=#f8cecc;strokeColor=#b85450;gradientColor=#ea6b66;" vertex="1" parent="1">
          <mxGeometry x="1040" y="310" width="120" height="60" as="geometry" />
        </mxCell>
        <mxCell id="4auIruKiONwnVCz1NFnw-10" value="5.- Fase de Cierre" style="rounded=0;whiteSpace=wrap;html=1;fillColor=#f8cecc;strokeColor=#b85450;gradientColor=#ea6b66;" vertex="1" parent="1">
          <mxGeometry x="1290" y="310" width="120" height="60" as="geometry" />
        </mxCell>
        <mxCell id="4auIruKiONwnVCz1NFnw-11" value="3.- Fase de Ejecucion" style="rounded=0;whiteSpace=wrap;html=1;fillColor=#f8cecc;strokeColor=#b85450;gradientColor=#ea6b66;" vertex="1" parent="1">
          <mxGeometry x="790" y="310" width="120" height="60" as="geometry" />
        </mxCell>
        <mxCell id="4auIruKiONwnVCz1NFnw-14" value="1.2.- Definir Requerimientos Funcionales." style="rounded=0;whiteSpace=wrap;html=1;fillColor=#dae8fc;strokeColor=#6c8ebf;gradientColor=#7ea6e0;" vertex="1" parent="1">
          <mxGeometry x="310" y="400" width="130" height="70" as="geometry" />
        </mxCell>
        <mxCell id="4auIruKiONwnVCz1NFnw-15" value="1.4.- Realizar Acta de Constitucion." style="rounded=0;whiteSpace=wrap;html=1;fillColor=#dae8fc;strokeColor=#6c8ebf;gradientColor=#7ea6e0;" vertex="1" parent="1">
          <mxGeometry x="312" y="580" width="134" height="70" as="geometry" />
        </mxCell>
        <mxCell id="4auIruKiONwnVCz1NFnw-16" value="&lt;font style=&quot;color: light-dark(rgb(0, 0, 0), rgb(255, 255, 255));&quot;&gt;1.3.-&amp;nbsp;&lt;span style=&quot;background-color: transparent;&quot;&gt;Definir Requerimientos No Funcionales.&lt;/span&gt;&lt;/font&gt;" style="rounded=0;whiteSpace=wrap;html=1;fillColor=#dae8fc;strokeColor=#6c8ebf;gradientColor=#7ea6e0;" vertex="1" parent="1">
          <mxGeometry x="312" y="490" width="130" height="70" as="geometry" />
        </mxCell>
        <mxCell id="4auIruKiONwnVCz1NFnw-17" value="1.5.- Identificación de Interesados." style="rounded=0;whiteSpace=wrap;html=1;fillColor=#dae8fc;strokeColor=#6c8ebf;gradientColor=#7ea6e0;" vertex="1" parent="1">
          <mxGeometry x="312" y="670" width="134" height="70" as="geometry" />
        </mxCell>
      </root>
    </mxGraphModel>
  </diagram>
</mxfile>
